<?xml version="1.0" encoding="UTF-8"?>
<svg width="16px" height="16px" viewBox="0 0 16 16" version="1.1" xmlns="http://www.w3.org/2000/svg" xmlns:xlink="http://www.w3.org/1999/xlink">
    <!-- Generator: Sketch 49.3 (51167) - http://www.bohemiancoding.com/sketch -->
    <title>icon/help/1</title>
    <desc>Created with Sketch.</desc>
    <defs></defs>
    <g id="icon/help/1" stroke="none" stroke-width="1" fill="none" fill-rule="evenodd">
        <rect id="Rectangle-path" fill="#CCCCCC" fill-rule="nonzero" x="7.19437939" y="11.1912693" width="1.59876347" height="1.59876347"></rect>
        <path d="M7.99374239,3.19748946 C6.22711007,3.19748946 4.79625293,4.62838407 4.79625293,6.39497892 L6.39501639,6.39497892 C6.39501639,5.5156534 7.11445433,4.79621546 7.99377986,4.79621546 C8.87310539,4.79621546 9.59250585,5.51569087 9.59250585,6.39501639 C9.59250585,7.99377986 7.19437939,7.79391101 7.19437939,10.3919063 L8.79314286,10.3919063 C8.79314286,8.59331148 11.1912693,8.39348009 11.1912693,6.39501639 C11.1912693,4.62838407 9.76037471,3.19748946 7.99374239,3.19748946 Z" id="Shape" fill="#CCCCCC" fill-rule="nonzero"></path>
        <path d="M7.99374239,0 C3.5811897,0 0,3.5811897 0,7.99374239 C0,12.4062951 3.5811897,15.9874848 7.99374239,15.9874848 C12.4062951,15.9874848 15.9874848,12.4062951 15.9874848,7.99374239 C15.9874848,3.5811897 12.4062951,0 7.99374239,0 Z M7.99374239,14.3887588 C4.46849649,14.3887588 1.598726,11.5189883 1.598726,7.99374239 C1.598726,4.46849649 4.46849649,1.59876347 7.99374239,1.59876347 C11.5189883,1.59876347 14.3887588,4.46849649 14.3887588,7.99374239 C14.3887588,11.5189883 11.5189883,14.3887588 7.99374239,14.3887588 Z" id="Shape" fill="#CCCCCC" fill-rule="nonzero"></path>
    </g>
</svg>