<?xml version="1.0" encoding="UTF-8"?>
<svg width="16px" height="16px" viewBox="0 0 16 16" version="1.1" xmlns="http://www.w3.org/2000/svg" xmlns:xlink="http://www.w3.org/1999/xlink">
    <!-- Generator: Sketch 49.3 (51167) - http://www.bohemiancoding.com/sketch -->
    <title>icon/draft</title>
    <desc>Created with Sketch.</desc>
    <defs></defs>
    <g id="icon/draft" stroke="none" stroke-width="1" fill="none" fill-rule="evenodd">
        <path d="M13.6316173,3.95418679 L10.3850387,0.707498861 C10.0380319,0.360637813 9.58004556,0.135070615 9.01129841,0.0311252847 L9.01129841,5.32767198 L14.307918,5.32767198 C14.2038633,4.7586697 13.9782597,4.30090205 13.6316173,3.95418679 Z" id="Shape" fill="#2BA1D8" fill-rule="nonzero"></path>
        <path d="M8.67839636,6.65949886 C8.4007836,6.65949886 8.16490205,6.56244191 7.97071526,6.36818223 C7.77645558,6.17403189 7.67943508,5.93815034 7.67943508,5.66061048 L7.67943508,0 L2.01878815,0 C1.74135763,0 1.50547608,0.0970569476 1.31125285,0.291316629 C1.11699317,0.48546697 1.01989977,0.721348519 1.01989977,0.998888383 L1.01989977,14.9840911 C1.01989977,15.2617039 1.11699317,15.4975854 1.31125285,15.6917722 C1.50551253,15.8858497 1.74135763,15.9830159 2.0188246,15.9830159 L13.3403007,15.9830159 C13.6176948,15.9830159 13.8534305,15.8858497 14.0476173,15.6917722 C14.2418041,15.4974396 14.3389704,15.2617039 14.3389704,14.9840911 L14.3389704,6.65949886 L8.67839636,6.65949886 Z" id="Shape" fill="#2BA1D8" fill-rule="nonzero"></path>
    </g>
</svg>