<?xml version="1.0" encoding="UTF-8"?>
<svg width="16px" height="16px" viewBox="0 0 16 16" version="1.1" xmlns="http://www.w3.org/2000/svg" xmlns:xlink="http://www.w3.org/1999/xlink">
    <!-- Generator: Sketch 49.3 (51167) - http://www.bohemiancoding.com/sketch -->
    <title>Icon/group</title>
    <desc>Created with Sketch.</desc>
    <defs></defs>
    <g id="Icon/group" stroke="none" stroke-width="1" fill="none" fill-rule="evenodd">
        <path d="M9.55160494,3.35496296 C10.2834568,3.81382716 10.796642,4.59032099 10.8900741,5.49165432 C11.1885432,5.63111111 11.5198025,5.71130864 11.8710123,5.71130864 C13.1531852,5.71130864 14.1923951,4.67209877 14.1923951,3.39012346 C14.1923951,2.10795062 13.1531852,1.06874074 11.8710123,1.06874074 C10.6010864,1.0691358 9.57096296,2.08977778 9.55160494,3.35496296 Z M8.03081481,8.10795062 C9.31298765,8.10795062 10.3521975,7.06854321 10.3521975,5.7865679 C10.3521975,4.50459259 9.31279012,3.46538272 8.03081481,3.46538272 C6.74883951,3.46538272 5.70903704,4.50479012 5.70903704,5.78676543 C5.70903704,7.06874074 6.74883951,8.10795062 8.03081481,8.10795062 Z M9.01550617,8.26617284 L7.0457284,8.26617284 C5.40681481,8.26617284 4.07348148,9.5997037 4.07348148,11.2386173 L4.07348148,13.6475062 L4.07960494,13.6852346 L4.24553086,13.7371852 C5.80958025,14.2258765 7.16839506,14.3888395 8.28681481,14.3888395 C10.4713086,14.3888395 11.7374815,13.7660247 11.8155062,13.726321 L11.9705679,13.6479012 L11.9871605,13.6479012 L11.9871605,11.2386173 C11.9877531,9.5997037 10.6544198,8.26617284 9.01550617,8.26617284 Z M12.8560988,5.8697284 L10.9015309,5.8697284 C10.8803951,6.65175309 10.5465679,7.35595062 10.0185679,7.86241975 C11.475358,8.29560494 12.5412346,9.64651852 12.5412346,11.2421728 L12.5412346,11.9844938 C14.4711111,11.9137778 15.5832099,11.3668148 15.6564938,11.3300741 L15.8115556,11.2514568 L15.8281481,11.2514568 L15.8281481,8.84177778 C15.8281481,7.20306173 14.4948148,5.8697284 12.8560988,5.8697284 Z M3.95753086,5.7117037 C4.41165432,5.7117037 4.83417284,5.57916049 5.19209877,5.35338272 C5.30587654,4.61125926 5.7037037,3.96276543 6.272,3.52108642 C6.27437037,3.47762963 6.27851852,3.4345679 6.27851852,3.39071605 C6.27851852,2.10854321 5.23911111,1.06933333 3.95753086,1.06933333 C2.67516049,1.06933333 1.63614815,2.10854321 1.63614815,3.39071605 C1.63614815,4.6722963 2.67516049,5.7117037 3.95753086,5.7117037 Z M6.0422716,7.86241975 C5.51683951,7.35851852 5.18419753,6.65807407 5.15990123,5.88079012 C5.08740741,5.87545679 5.0157037,5.8697284 4.94182716,5.8697284 L2.97224691,5.8697284 C1.33333333,5.8697284 0,7.20306173 0,8.84177778 L0,11.2510617 L0.00612345679,11.2881975 L0.172049383,11.3405432 C1.42676543,11.7322469 2.5465679,11.9127901 3.51920988,11.969679 L3.51920988,11.2421728 C3.51960494,9.64651852 4.58508642,8.296 6.0422716,7.86241975 Z" id="Shape" fill="#2BA1D8" fill-rule="nonzero"></path>
    </g>
</svg>