<svg id="Layer_1" data-name="Layer 1" xmlns="http://www.w3.org/2000/svg" viewBox="0 0 16 16"><defs><style>.cls-1{fill:#9b9b9b;}</style></defs><title>ic</title><path class="cls-1" d="M14.28,8.29H11.71V5.72h2.57Zm0,3.43H11.71V8.86h2.57Zm0,3.14H11.71V12.28h2.57ZM10.94,4.2a.27.27,0,0,1-.08-.2V1.43a.29.29,0,0,1,.29-.29h.57a.29.29,0,0,1,.29.29V4a.29.29,0,0,1-.29.29h-.57A.27.27,0,0,1,10.94,4.2Zm.2,4.08H8.29V5.72h2.86Zm0,3.43H8.29V8.86h2.86Zm0,3.14H8.29V12.28h2.86ZM7.71,8.29H4.86V5.72H7.71Zm0,3.43H4.86V8.86H7.71Zm0,3.14H4.86V12.28H7.71ZM4.09,4.2A.27.27,0,0,1,4,4V1.43a.29.29,0,0,1,.29-.29h.57a.29.29,0,0,1,.29.29V4a.29.29,0,0,1-.29.29H4.29A.27.27,0,0,1,4.09,4.2Zm.2,4.08H1.72V5.72H4.29Zm0,3.43H1.72V8.86H4.29Zm0,3.14H1.72V12.28H4.29ZM15.08,2.63a1.1,1.1,0,0,0-.8-.34H13.14V1.43a1.37,1.37,0,0,0-.42-1,1.37,1.37,0,0,0-1-.42h-.57a1.37,1.37,0,0,0-1,.42,1.37,1.37,0,0,0-.42,1v.86H6.29V1.43a1.37,1.37,0,0,0-.42-1,1.37,1.37,0,0,0-1-.42H4.29a1.37,1.37,0,0,0-1,.42,1.37,1.37,0,0,0-.42,1v.86H1.72a1.1,1.1,0,0,0-.8.34,1.1,1.1,0,0,0-.34.8V14.85a1.1,1.1,0,0,0,.34.8,1.1,1.1,0,0,0,.8.34H14.28a1.16,1.16,0,0,0,1.14-1.14V3.43A1.1,1.1,0,0,0,15.08,2.63Z"/></svg>